<?xml version="1.0" standalone="no"?>
<!DOCTYPE svg PUBLIC "-//W3C//DTD SVG 20010904//EN"
 "http://www.w3.org/TR/2001/REC-SVG-20010904/DTD/svg10.dtd">
<svg version="1.0" xmlns="http://www.w3.org/2000/svg"
 width="707.000000pt" height="494.000000pt" viewBox="0 0 707.000000 494.000000"
 preserveAspectRatio="xMidYMid meet">
<metadata>
Created by potrace 1.15, written by Peter Selinger 2001-2017
</metadata>
<g transform="translate(0.000000,494.000000) scale(0.100000,-0.100000)"
fill="#3534d7" stroke="none">
<path d="M657 4850 c-63 -11 -162 -59 -214 -104 -124 -108 -220 -329 -275
-632 -21 -118 -23 -155 -22 -444 1 -341 13 -479 60 -709 135 -657 537 -1325
1129 -1881 454 -426 1022 -724 1605 -840 252 -51 304 -55 640 -55 338 0 415 7
660 62 740 163 1463 624 1975 1258 439 544 686 1173 735 1870 60 853 -124
1366 -523 1456 -36 8 -98 10 -179 6 -177 -8 -262 -36 -578 -190 -357 -174
-570 -337 -1091 -833 -516 -490 -660 -609 -844 -695 -134 -63 -199 -70 -346
-39 -230 49 -374 160 -824 630 -391 409 -609 604 -865 775 -158 106 -284 172
-435 231 -341 132 -460 158 -608 134z"/>
</g>
</svg>
